<svg xmlns="http://www.w3.org/2000/svg" width="64" height="64" viewBox="0 0 64 64"><g stroke="#56504b" stroke-width="1.6" stroke-linejoin="round" paint-order="stroke fill"><rect x="3" y="22" width="58" height="23" rx="4" fill="#52695e"/><rect x="8" y="27" width="5" height="4" rx="1" fill="#c5d0b4"/><rect x="15" y="27" width="5" height="4" rx="1" fill="#c5d0b4"/><rect x="22" y="27" width="5" height="4" rx="1" fill="#c5d0b4"/><rect x="29" y="27" width="5" height="4" rx="1" fill="#c5d0b4"/><rect x="36" y="27" width="5" height="4" rx="1" fill="#c5d0b4"/><rect x="43" y="27" width="5" height="4" rx="1" fill="#c5d0b4"/><rect x="50" y="27" width="5" height="4" rx="1" fill="#c5d0b4"/><rect x="8" y="33" width="5" height="4" rx="1" fill="#c5d0b4"/><rect x="15" y="33" width="5" height="4" rx="1" fill="#c5d0b4"/><rect x="22" y="33" width="5" height="4" rx="1" fill="#c5d0b4"/><rect x="29" y="33" width="5" height="4" rx="1" fill="#c5d0b4"/><rect x="36" y="33" width="5" height="4" rx="1" fill="#c5d0b4"/><rect x="43" y="33" width="5" height="4" rx="1" fill="#c5d0b4"/><rect x="50" y="33" width="5" height="4" rx="1" fill="#c5d0b4"/><rect x="8" y="39" width="5" height="4" rx="1" fill="#c5d0b4"/><rect x="15" y="39" width="5" height="4" rx="1" fill="#c5d0b4"/><rect x="22" y="39" width="5" height="4" rx="1" fill="#c5d0b4"/><rect x="29" y="39" width="5" height="4" rx="1" fill="#c5d0b4"/><rect x="36" y="39" width="5" height="4" rx="1" fill="#c5d0b4"/><rect x="43" y="39" width="5" height="4" rx="1" fill="#c5d0b4"/><rect x="50" y="39" width="5" height="4" rx="1" fill="#c5d0b4"/></g></svg>