<svg xmlns="http://www.w3.org/2000/svg" width="64" height="64" viewBox="0 0 64 64"><g transform="translate(0 0)"><ellipse cx="32" cy="58" rx="16" ry="3" fill="#25272b" opacity=".18"/><g transform="translate(0 0.0)" stroke-linejoin="round" stroke-linecap="round"><ellipse cx="25" cy="13" rx="5" ry="10" fill="#dac7ec" stroke="#25272b" stroke-width="2.8"/><ellipse cx="39" cy="13" rx="5" ry="10" fill="#dac7ec" stroke="#25272b" stroke-width="2.8"/><ellipse cx="25" cy="12" rx="2" ry="6" fill="#eaafa5" stroke="none" stroke-width="2.8"/><ellipse cx="39" cy="12" rx="2" ry="6" fill="#eaafa5" stroke="none" stroke-width="2.8"/><ellipse cx="32" cy="44" rx="13" ry="12" fill="#dac7ec" stroke="#25272b" stroke-width="2.8"/><ellipse cx="32" cy="46" rx="8" ry="7" fill="#fff7df" stroke="none" stroke-width="2.8"/><ellipse cx="24" cy="56" rx="6" ry="3" fill="#dac7ec" stroke="#25272b" stroke-width="2.8"/><ellipse cx="40" cy="56" rx="6" ry="3" fill="#dac7ec" stroke="#25272b" stroke-width="2.8"/><ellipse cx="32" cy="30" rx="17" ry="14" fill="#dac7ec" stroke="#25272b" stroke-width="2.8"/><ellipse cx="25" cy="29" rx="2.6" ry="3.5" fill="#25272b" stroke="none" stroke-width="2.8"/><ellipse cx="24.3" cy="27.8" rx="0.8" ry="1" fill="#ffffff" stroke="none" stroke-width="2.8"/><ellipse cx="39" cy="29" rx="2.6" ry="3.5" fill="#25272b" stroke="none" stroke-width="2.8"/><ellipse cx="38.3" cy="27.8" rx="0.8" ry="1" fill="#ffffff" stroke="none" stroke-width="2.8"/><ellipse cx="21" cy="35" rx="3" ry="1.6" fill="#e9a398" stroke="none" stroke-width="2.8"/><ellipse cx="43" cy="35" rx="3" ry="1.6" fill="#e9a398" stroke="none" stroke-width="2.8"/><path d="M30.5 34 Q32 32 33.5 34 L32 36 M32 36 q-2 3-4 0 M32 36 q2 3 4 0" fill="none" stroke="#25272b" stroke-width="1.6"/><path d="M22 43 Q32 47 42 43 L39 48 L33 47 L29 52 L26 47Z" fill="#66968d" stroke="#25272b" stroke-width="2"/><ellipse cx="20" cy="47" rx="3" ry="5" fill="#dac7ec" stroke="#25272b" stroke-width="2.8"/><ellipse cx="44" cy="47" rx="3" ry="5" fill="#dac7ec" stroke="#25272b" stroke-width="2.8"/></g></g></svg>