<svg xmlns="http://www.w3.org/2000/svg" width="64" height="64" viewBox="0 0 64 64"><g transform="translate(0 0)"><ellipse cx="32" cy="56" rx="18" ry="4" fill="#354c42" opacity=".16"/><g transform="translate(0 -0.0)"><ellipse cx="32" cy="42" rx="15" ry="16" fill="#d5b984"/><ellipse cx="32" cy="44" rx="10" ry="10" fill="#e9cf9e"/><path d="M21 32 Q32 38 43 32 L44 47 Q35 52 32 45 Q25 52 20 47Z" fill="#738065"/><path d="M32 35V47" stroke="#c5bb83" stroke-width="1.5"/><ellipse cx="24" cy="56" rx="7" ry="4" fill="#d5b984" transform="translate(0 0)"/><ellipse cx="40" cy="56" rx="7" ry="4" fill="#d5b984" transform="translate(0 0)"/><ellipse cx="32" cy="23" rx="17" ry="15" fill="#d5b984"/><ellipse cx="13" cy="25" rx="6" ry="18" fill="#d5b984" transform="rotate(20 13 25)"/><ellipse cx="51" cy="25" rx="6" ry="18" fill="#d5b984" transform="rotate(-20 51 25)"/><circle cx="25" cy="23" r="6.2" fill="none" stroke="#635443" stroke-width="1.5"/><ellipse cx="25" cy="23" rx="2" ry="3" fill="#37312b"/><circle cx="24.4" cy="22" r=".7" fill="#fff7da"/><circle cx="39" cy="23" r="6.2" fill="none" stroke="#635443" stroke-width="1.5"/><ellipse cx="39" cy="23" rx="2" ry="3" fill="#37312b"/><circle cx="38.4" cy="22" r=".7" fill="#fff7da"/><path d="M31 23H33" stroke="#635443" stroke-width="1.5"/><ellipse cx="32" cy="31" rx="7" ry="5" fill="#ead2a6"/><path d="M30 29 Q32 27 34 29 L32 31Z" fill="#8c6a50"/></g></g></svg>